<?xml version="1.0" encoding="UTF-8"?>
<svg id="new-entry" xmlns="http://www.w3.org/2000/svg" viewBox="0 0 48 48">
  <defs>
    <style>
      .cls-1 {
        stroke-width: 0px;
      }
    </style>
  </defs>
  <path class="cls-1" d="m36.5,42H11.5c-3.03,0-5.5-2.47-5.5-5.5v-15.9c0-.83.67-1.5,1.5-1.5s1.5.67,1.5,1.5v15.9c0,1.38,1.12,2.5,2.5,2.5h25c1.38,0,2.5-1.12,2.5-2.5v-2.6c0-.83.67-1.5,1.5-1.5s1.5.67,1.5,1.5v2.6c0,3.03-2.47,5.5-5.5,5.5Z"/>
  <path class="cls-1" d="m40.5,28.7c-.83,0-1.5-.67-1.5-1.5v-15.7c0-1.38-1.12-2.5-2.5-2.5H11.5c-1.38,0-2.5,1.12-2.5,2.5v2.7c0,.83-.67,1.5-1.5,1.5s-1.5-.67-1.5-1.5v-2.7c0-3.03,2.47-5.5,5.5-5.5h25c3.03,0,5.5,2.47,5.5,5.5v15.7c0,.83-.67,1.5-1.5,1.5Z"/>
  <path class="cls-1" d="m24,34c-.83,0-1.5-.67-1.5-1.5V15.5c0-.83.67-1.5,1.5-1.5s1.5.67,1.5,1.5v17c0,.83-.67,1.5-1.5,1.5Z"/>
  <path class="cls-1" d="m32.5,25.5H15.5c-.83,0-1.5-.67-1.5-1.5s.67-1.5,1.5-1.5h17c.83,0,1.5.67,1.5,1.5s-.67,1.5-1.5,1.5Z"/>
</svg>