<?xml version="1.0" encoding="UTF-8"?>
<svg id="Layer_1" data-name="Layer 1" xmlns="http://www.w3.org/2000/svg" viewBox="0 0 48 48">
  <defs>
    <style>
      .cls-1 {
        stroke-width: 0px;
      }
    </style>
  </defs>
  <path class="cls-1" d="M32.1,11.1c-.24,0-.49-.06-.71-.18-2.35-1.27-4.83-1.92-7.38-1.92-.81,0-1.54.09-2.31.19-.81.1-1.57-.48-1.67-1.3-.1-.82.48-1.57,1.3-1.67.83-.1,1.69-.21,2.69-.21,3.06,0,6.02.77,8.81,2.28.73.39,1,1.31.6,2.03-.27.5-.79.79-1.32.79Z"/>
  <path class="cls-1" d="M24,42c-9.93,0-18-8.08-18-18,0-5.6,2.55-10.77,6.99-14.19.66-.5,1.6-.38,2.1.27.5.66.38,1.6-.27,2.1-3.7,2.84-5.81,7.15-5.81,11.81,0,8.27,6.73,15,15,15s15-6.73,15-15c0-3.25-1.07-6.4-3.1-9.1-.5-.66-.36-1.6.3-2.1.66-.5,1.6-.36,2.1.3,2.42,3.23,3.7,7,3.7,10.9,0,9.92-8.08,18-18,18Z"/>
  <path class="cls-1" d="M14.5,19c-.83,0-1.5-.67-1.5-1.5v-5.5h-5.5c-.83,0-1.5-.67-1.5-1.5s.67-1.5,1.5-1.5h7c.83,0,1.5.67,1.5,1.5v7c0,.83-.67,1.5-1.5,1.5Z"/>
</svg>