<?xml version="1.0" encoding="UTF-8"?>
<svg id="Layer_1" data-name="Layer 1" xmlns="http://www.w3.org/2000/svg" viewBox="0 0 48 48">
  <defs>
    <style>
      .cls-1 {
        fill: #fff;
        stroke-width: 0px;
      }
    </style>
  </defs>
  <path class="cls-1" d="m24,44c-11.03,0-20-8.97-20-20,0-4.56,1.54-8.98,4.33-12.44.52-.65,1.46-.75,2.11-.23s.75,1.46.23,2.11c-2.36,2.93-3.67,6.68-3.67,10.56,0,9.37,7.63,17,17,17,2.36,0,4.78-.51,7-1.48.76-.33,1.64.02,1.97.78.33.76-.02,1.64-.78,1.97-2.59,1.13-5.43,1.72-8.2,1.72Z"/>
  <path class="cls-1" d="m39.7,35.2c-.28,0-.56-.08-.81-.24-.7-.45-.9-1.38-.45-2.07,1.68-2.61,2.56-5.68,2.56-8.89,0-9.37-7.63-17-17-17-1.23,0-2.5.15-3.99.47-.81.17-1.61-.34-1.78-1.15-.17-.81.34-1.61,1.15-1.78,1.7-.36,3.16-.53,4.61-.53,11.03,0,20,8.97,20,20,0,3.79-1.05,7.42-3.04,10.51-.29.45-.77.69-1.26.69Z"/>
  <path class="cls-1" d="m32.2,33c-.44,0-.88-.2-1.18-.57-1.7-2.15-4.33-3.43-7.02-3.43s-5.32,1.28-7.02,3.43c-.52.65-1.46.76-2.11.25-.65-.51-.76-1.46-.25-2.11,2.27-2.86,5.77-4.57,9.38-4.57s7.11,1.71,9.38,4.57c.51.65.41,1.59-.25,2.11-.28.22-.6.32-.93.32Z"/>
  <circle class="cls-1" cx="18" cy="19" r="2.5"/>
  <circle class="cls-1" cx="30" cy="19" r="2.5"/>
</svg>