<?xml version="1.0" encoding="UTF-8"?>
<svg id="Layer_1" data-name="Layer 1" xmlns="http://www.w3.org/2000/svg" viewBox="0 0 48 48">
  <defs>
    <style>
      .cls-1 {
        fill: #fff;
        stroke-width: 0px;
      }
    </style>
  </defs>
  <path class="cls-1" d="M24,44c-11.03,0-20-8.97-20-20,0-4.62,1.61-9.15,4.54-12.75.52-.64,1.47-.74,2.11-.22.64.52.74,1.47.22,2.11-2.49,3.07-3.86,6.92-3.86,10.85,0,9.37,7.63,17,17,17,2.41,0,4.7-.46,6.8-1.38.76-.33,1.64.02,1.97.78s-.02,1.64-.78,1.97c-2.48,1.08-5.17,1.62-8,1.62Z"/>
  <path class="cls-1" d="M39.1,36.2c-.3,0-.6-.09-.86-.27-.68-.47-.84-1.41-.37-2.09,2.05-2.92,3.13-6.33,3.13-9.84,0-9.37-7.63-17-17-17-2.45,0-4.96.55-7.05,1.55-.75.36-1.64.04-2-.71-.36-.75-.04-1.64.71-2,2.53-1.21,5.41-1.85,8.35-1.85,11.03,0,20,8.97,20,20,0,4.13-1.27,8.13-3.67,11.56-.29.42-.76.64-1.23.64Z"/>
  <circle class="cls-1" cx="24" cy="16" r="2"/>
  <path class="cls-1" d="M24,35c-.83,0-1.5-.67-1.5-1.5v-11c0-.83.67-1.5,1.5-1.5s1.5.67,1.5,1.5v11c0,.83-.67,1.5-1.5,1.5Z"/>
</svg>