<?xml version="1.0" encoding="UTF-8"?>
<svg id="Layer_1" data-name="Layer 1" xmlns="http://www.w3.org/2000/svg" viewBox="0 0 48 48">
  <defs>
    <style>
      .cls-1 {
        stroke-width: 0px;
      }
    </style>
  </defs>
  <path class="cls-1" d="m36.5,42H11.5c-3.03,0-5.5-2.47-5.5-5.5v-13.1c0-.83.67-1.5,1.5-1.5s1.5.67,1.5,1.5v13.1c0,1.38,1.12,2.5,2.5,2.5h25c1.38,0,2.5-1.12,2.5-2.5v-2.3c0-.83.67-1.5,1.5-1.5s1.5.67,1.5,1.5v2.3c0,3.03-2.47,5.5-5.5,5.5Z"/>
  <path class="cls-1" d="m40.5,28.4c-.83,0-1.5-.67-1.5-1.5v-15.4c0-1.38-1.12-2.5-2.5-2.5H11.5c-1.38,0-2.5,1.12-2.5,2.5v4.5c0,.83-.67,1.5-1.5,1.5s-1.5-.67-1.5-1.5v-4.5c0-3.03,2.47-5.5,5.5-5.5h25c3.03,0,5.5,2.47,5.5,5.5v15.4c0,.83-.67,1.5-1.5,1.5Z"/>
</svg>