<?xml version="1.0" encoding="UTF-8"?>
<svg id="account" xmlns="http://www.w3.org/2000/svg" viewBox="0 0 48 48">
  <defs>
    <style>
      .cls-1 {
        stroke-width: 0px;
      }
    </style>
  </defs>
  <g id="border">
    <path class="cls-1" d="m24,44c-11.03,0-20-8.97-20-20,0-2.06.35-4.17,1.07-6.45.25-.79,1.09-1.23,1.88-.98.79.25,1.23,1.09.98,1.88-.63,1.98-.93,3.8-.93,5.55,0,9.37,7.63,17,17,17,5.25,0,10.34-2.58,13.6-6.9.5-.66,1.44-.79,2.1-.29.66.5.79,1.44.29,2.1-3.83,5.07-9.81,8.1-16,8.1Z"/>
    <path class="cls-1" d="m42.2,29c-.09,0-.18,0-.27-.02-.82-.15-1.36-.93-1.21-1.74.18-.99.28-2.11.28-3.23,0-9.37-7.63-17-17-17-3.94,0-7.62,1.3-10.65,3.76-.64.52-1.59.43-2.11-.22-.52-.64-.42-1.59.22-2.11,3.57-2.9,7.91-4.44,12.55-4.44,11.03,0,20,8.97,20,20,0,1.3-.11,2.6-.32,3.77-.13.72-.76,1.23-1.47,1.23Z"/>
  </g>
  <g id="inner">
    <path class="cls-1" d="m24,24c-3.31,0-6-2.69-6-6s2.69-6,6-6,6,2.69,6,6-2.69,6-6,6Zm0-9c-1.65,0-3,1.35-3,3s1.35,3,3,3,3-1.35,3-3-1.35-3-3-3Z"/>
    <path class="cls-1" d="m24,37c-5.7,0-10-2.88-10-6.7,0-2.37,1.93-4.3,4.3-4.3h11.4c2.37,0,4.3,1.93,4.3,4.3,0,3.82-4.3,6.7-10,6.7Zm-5.7-8c-.8,0-1.3.67-1.3,1.3,0,1.79,2.81,3.7,7,3.7s7-1.91,7-3.7c0-.8-.67-1.3-1.3-1.3h-11.4Z"/>
  </g>
</svg>