<?xml version="1.0" encoding="UTF-8"?>
<svg id="filters" xmlns="http://www.w3.org/2000/svg" viewBox="0 0 48 48">
  <defs>
    <style>
      .cls-1 {
        stroke-width: 0px;
      }
    </style>
  </defs>
  <path class="cls-1" d="m36.5,38c-3.03,0-5.5-2.47-5.5-5.5,0-.83.67-1.5,1.5-1.5s1.5.67,1.5,1.5c0,1.38,1.12,2.5,2.5,2.5s2.5-1.12,2.5-2.5-1.12-2.5-2.5-2.5c-.83,0-1.5-.67-1.5-1.5s.67-1.5,1.5-1.5c3.03,0,5.5,2.47,5.5,5.5s-2.47,5.5-5.5,5.5Z"/>
  <path class="cls-1" d="m36.5,44c-.83,0-1.5-.67-1.5-1.5v-6c0-.83.67-1.5,1.5-1.5s1.5.67,1.5,1.5v6c0,.83-.67,1.5-1.5,1.5Z"/>
  <path class="cls-1" d="m36.5,30c-.83,0-1.5-.67-1.5-1.5V5.5c0-.83.67-1.5,1.5-1.5s1.5.67,1.5,1.5v23c0,.83-.67,1.5-1.5,1.5Z"/>
  <path class="cls-1" d="m11.5,36c-.83,0-1.5-.67-1.5-1.5s.67-1.5,1.5-1.5c1.38,0,2.5-1.12,2.5-2.5s-1.12-2.5-2.5-2.5-2.5,1.12-2.5,2.5c0,.83-.67,1.5-1.5,1.5s-1.5-.67-1.5-1.5c0-3.03,2.47-5.5,5.5-5.5s5.5,2.47,5.5,5.5-2.47,5.5-5.5,5.5Z"/>
  <path class="cls-1" d="m11.5,28c-.83,0-1.5-.67-1.5-1.5V5.5c0-.83.67-1.5,1.5-1.5s1.5.67,1.5,1.5v21c0,.83-.67,1.5-1.5,1.5Z"/>
  <path class="cls-1" d="m11.5,44c-.83,0-1.5-.67-1.5-1.5v-8c0-.83.67-1.5,1.5-1.5s1.5.67,1.5,1.5v8c0,.83-.67,1.5-1.5,1.5Z"/>
  <path class="cls-1" d="m24,21c-3.03,0-5.5-2.47-5.5-5.5s2.47-5.5,5.5-5.5,5.5,2.47,5.5,5.5c0,.83-.67,1.5-1.5,1.5s-1.5-.67-1.5-1.5c0-1.38-1.12-2.5-2.5-2.5s-2.5,1.12-2.5,2.5,1.12,2.5,2.5,2.5c.83,0,1.5.67,1.5,1.5s-.67,1.5-1.5,1.5Z"/>
  <path class="cls-1" d="m24,13c-.83,0-1.5-.67-1.5-1.5v-6c0-.83.67-1.5,1.5-1.5s1.5.67,1.5,1.5v6c0,.83-.67,1.5-1.5,1.5Z"/>
  <path class="cls-1" d="m24,44c-.83,0-1.5-.67-1.5-1.5v-23c0-.83.67-1.5,1.5-1.5s1.5.67,1.5,1.5v23c0,.83-.67,1.5-1.5,1.5Z"/>
</svg>