<?xml version="1.0" encoding="UTF-8"?>
<svg id="Layer_1" data-name="Layer 1" xmlns="http://www.w3.org/2000/svg" viewBox="0 0 48 48">
  <defs>
    <style>
      .cls-1 {
        fill: #fff;
        stroke-width: 0px;
      }
    </style>
  </defs>
  <path class="cls-1" d="m33.6,42.1c-.89,0-1.77-.34-2.46-1.04l-7.14-7.14-7.14,7.14c-1.38,1.38-3.54,1.38-4.92,0l-5-5c-.67-.67-1.04-1.54-1.04-2.46s.37-1.79,1.04-2.46l3.7-3.7c.59-.59,1.54-.59,2.12,0s.59,1.54,0,2.12l-3.7,3.7c-.22.22-.22.46,0,.68l5,5c.21.21.47.21.68,0l8.2-8.2c.59-.59,1.54-.59,2.12,0l8.2,8.2c.21.21.47.21.68,0l5-5c.22-.22.22-.46,0-.68l-8.2-8.2c-.59-.59-.59-1.54,0-2.12l8.2-8.2c.22-.22.22-.46,0-.68l-2.6-2.6c-.59-.59-.59-1.54,0-2.12.59-.59,1.54-.59,2.12,0l2.6,2.6c.67.67,1.04,1.54,1.04,2.46s-.37,1.79-1.04,2.46l-7.14,7.14,7.14,7.14c.67.67,1.04,1.54,1.04,2.46s-.37,1.79-1.04,2.46l-5,5c-.69.69-1.58,1.04-2.46,1.04Z"/>
  <path class="cls-1" d="m16.2,25.5c-.38,0-.77-.15-1.06-.44l-8.2-8.2c-.67-.67-1.04-1.54-1.04-2.46s.37-1.79,1.04-2.46l5-5c1.38-1.38,3.54-1.38,4.92,0l7.14,7.14,8.04-8.04c.59-.59,1.54-.59,2.12,0,.59.59.59,1.54,0,2.12l-9.1,9.1c-.56.56-1.56.56-2.12,0l-8.2-8.2c-.22-.22-.46-.22-.68,0l-5,5c-.1.1-.16.22-.16.34s.06.23.16.34l8.2,8.2c.59.59.59,1.54,0,2.12-.29.29-.68.44-1.06.44Z"/>
</svg>