<?xml version="1.0" encoding="UTF-8"?>
<svg id="Layer_1" data-name="Layer 1" xmlns="http://www.w3.org/2000/svg" viewBox="0 0 48 48">
  <defs>
    <style>
      .cls-1 {
        stroke-width: 0px;
      }
    </style>
  </defs>
  <path class="cls-1" d="m24,44c-11.03,0-20-8.97-20-20,0-4.49,1.57-8.98,4.42-12.62.51-.65,1.45-.77,2.11-.26.65.51.77,1.45.26,2.11-2.44,3.12-3.78,6.95-3.78,10.78,0,9.37,7.63,17,17,17,3.49,0,6.76-.98,9.45-2.83.68-.47,1.62-.3,2.09.38.47.68.3,1.62-.38,2.09-3.19,2.2-7.05,3.37-11.15,3.37Z"/>
  <path class="cls-1" d="m40.7,33.5c-.21,0-.42-.04-.62-.14-.75-.34-1.08-1.23-.74-1.99,1.1-2.41,1.66-4.89,1.66-7.38,0-9.37-7.63-17-17-17-1.34,0-2.51.12-3.56.36-.8.19-1.61-.32-1.8-1.12-.19-.81.32-1.61,1.12-1.8,1.28-.29,2.66-.44,4.24-.44,11.03,0,20,8.97,20,20,0,2.92-.65,5.82-1.94,8.62-.25.55-.8.88-1.36.88Z"/>
  <path class="cls-1" d="m21.5,31c-.38,0-.77-.15-1.06-.44l-5-5c-.59-.59-.59-1.54,0-2.12.59-.59,1.54-.59,2.12,0l3.94,3.94,8.94-8.94c.59-.59,1.54-.59,2.12,0,.59.59.59,1.54,0,2.12l-10,10c-.29.29-.68.44-1.06.44Z"/>
</svg>