<?xml version="1.0" encoding="UTF-8"?>
<svg id="Layer_1" data-name="Layer 1" xmlns="http://www.w3.org/2000/svg" viewBox="0 0 48 48">
  <defs>
    <style>
      .cls-1 {
        stroke-width: 0px;
      }
    </style>
  </defs>
  <path class="cls-1" d="m13.65,40.84c-.29,0-.58-.08-.84-.26-5.52-3.73-8.82-9.93-8.82-16.58C4,12.97,12.97,4,24,4c.28,0,.56,0,.85.02.83.03,1.47.73,1.44,1.56-.03.83-.74,1.47-1.56,1.44-.24,0-.48-.02-.73-.02-9.37,0-17,7.63-17,17,0,5.66,2.8,10.93,7.5,14.1.69.46.87,1.4.4,2.08-.29.43-.76.66-1.24.66Z"/>
  <path class="cls-1" d="m24,44c-.52,0-1.03-.02-1.54-.06-.83-.06-1.44-.78-1.38-1.61.06-.83.78-1.47,1.61-1.38.43.03.87.05,1.31.05,9.37,0,17-7.63,17-17,0-6.54-3.65-12.4-9.53-15.28-.74-.36-1.05-1.26-.69-2.01.36-.74,1.26-1.05,2.01-.69,6.92,3.39,11.21,10.27,11.21,17.97,0,11.03-8.97,20-20,20Z"/>
  <path class="cls-1" d="m24,28c-.83,0-1.5-.67-1.5-1.5v-12c0-.83.67-1.5,1.5-1.5s1.5.67,1.5,1.5v12c0,.83-.67,1.5-1.5,1.5Z"/>
  <circle class="cls-1" cx="24" cy="33" r="2"/>
</svg>