<?xml version="1.0" encoding="UTF-8"?>
<svg id="Layer_1" data-name="Layer 1" xmlns="http://www.w3.org/2000/svg" viewBox="0 0 48 48">
  <defs>
    <style>
      .cls-1 {
        fill: #fff;
        stroke-width: 0px;
      }
    </style>
  </defs>
  <path class="cls-1" d="m36.5,42H11.5c-3.03,0-5.5-2.47-5.5-5.5v-15.5c0-.83.67-1.5,1.5-1.5s1.5.67,1.5,1.5v15.5c0,1.38,1.12,2.5,2.5,2.5h25c1.38,0,2.5-1.12,2.5-2.5v-2.9c0-.83.67-1.5,1.5-1.5s1.5.67,1.5,1.5v2.9c0,3.03-2.47,5.5-5.5,5.5Z"/>
  <path class="cls-1" d="m40.5,28.7c-.83,0-1.5-.67-1.5-1.5v-15.7c0-1.38-1.12-2.5-2.5-2.5H11.5c-1.38,0-2.5,1.12-2.5,2.5v4.3c0,.83-.67,1.5-1.5,1.5s-1.5-.67-1.5-1.5v-4.3c0-3.03,2.47-5.5,5.5-5.5h25c3.03,0,5.5,2.47,5.5,5.5v15.7c0,.83-.67,1.5-1.5,1.5Z"/>
  <path class="cls-1" d="m20.5,33c-.38,0-.77-.15-1.06-.44l-6-6c-.59-.59-.59-1.54,0-2.12s1.54-.59,2.12,0l4.94,4.94,12.94-12.94c.59-.59,1.54-.59,2.12,0,.59.59.59,1.54,0,2.12l-14,14c-.29.29-.68.44-1.06.44Z"/>
</svg>