<?xml version="1.0" encoding="UTF-8"?>
<svg xmlns="http://www.w3.org/2000/svg" viewBox="0 0 4376 1000">
  <defs>
    <style>
      .cls-1 {
        fill: #4d4d4d;
      }

      .cls-1, .cls-2, .cls-3 {
        stroke-width: 0px;
      }

      .cls-2 {
        fill: #333;
      }

      .cls-3 {
        fill: #e6e6e6;
      }
    </style>
  </defs>
  <rect id="background" class="cls-2" y="0" width="1000" height="1000" rx="178.57" ry="178.57"/>
  <g id="grid_texture">
    <rect class="cls-1" x="170" y="170" width="320" height="320" rx="20" ry="20"/>
    <rect class="cls-1" x="510" y="510" width="320" height="320" rx="20" ry="20"/>
    <rect class="cls-1" x="510" y="170" width="150" height="150" rx="10" ry="10"/>
    <rect class="cls-1" x="510" y="340" width="150" height="150" rx="10" ry="10"/>
    <rect class="cls-1" x="680" y="340" width="150" height="150" rx="10" ry="10"/>
    <rect class="cls-1" x="680" y="170" width="150" height="150" rx="10" ry="10"/>
    <rect class="cls-1" x="170" y="510" width="150" height="150" rx="10" ry="10"/>
    <rect class="cls-1" x="170" y="680" width="150" height="150" rx="10" ry="10"/>
    <rect class="cls-1" x="340" y="680" width="150" height="150" rx="10" ry="10"/>
    <rect class="cls-1" x="340" y="510" width="150" height="150" rx="10" ry="10"/>
  </g>
  <g>
    <path class="cls-3" d="m344.11,752.68c0-81.25,58.12-136.88,132.5-136.88,61.88,0,116.88,37.5,123.75,123.75-29.38,17.5-52.5,52.5-52.5,100,0,59.38,35.62,107.5,99.38,107.5,89.38,0,97.5-88.75,97.5-157.5v-496.25c0-151.25,0-219.38-142.5-219.38v-5.62h530v5.62c-130,0-130,68.12-130,219.38v326.25c0,205-96.25,333.75-355,333.75-93.75,0-303.12-39.38-303.12-200.62Z"/>
    <path class="cls-3" d="m1105.34,614.55c0-200,160-338.75,365-338.75s365,138.75,365,338.75-160,338.75-365,338.75-365-138.75-365-338.75Zm475,0c0-178.75-12.5-332.5-110-332.5s-110,153.75-110,332.5c0,191.25,12.5,332.5,110,332.5s110-141.25,110-332.5Z"/>
    <path class="cls-3" d="m2739.08,857.03c-57.5,48.75-128.12,93.75-211.88,93.75-97.66,0-138.58-45.88-136.39-150.69-107.11,117.2-200.14,153.19-276.7,153.19-101.25,0-146.25-58.75-146.25-186.25v-321.25c0-80-5-117.5-117.5-97.5l-1.25-6.25,351.25-63.75v463.75c0,33.75,0,111.25,75,111.25,35.24,0,76.97-17.71,113.72-60.05v-347.43c0-73.75-2.5-118.12-88.75-102.5l-1.25-6.25,322.5-58.75v506.88c0,46.25,6.25,90.62,58.12,90.62,16.25,0,33.75-6.25,56.25-23.12l3.11,4.35Z"/>
    <path class="cls-3" d="m3444.71,432.05c0,81.25-57.5,145-138.75,145-56.25,0-107.5-33.75-111.25-105,37.5-12.5,62.5-43.75,62.5-86.25s-17.5-68.12-55.62-68.12c-58.7,0-103.34,79.69-129.36,160.21v310.4c0,120.62,14.38,149.38,119.38,149.38v5.62h-455v-5.62c92.5,0,103.75-28.75,103.75-149.38v-318.75c0-88.12-5.62-127.5-117.5-101.88l-1.25-5.62,353.12-83.75-4.3,184.68c31.76-94.81,91.78-187.16,210.54-187.16,85,0,163.75,53.75,163.75,156.25Z"/>
    <path class="cls-3" d="m4236.54,788.3c0,120.62,11.25,149.38,103.75,149.38v5.62h-406.88v-5.62c67.5,0,71.25-37.5,71.25-149.38v-297.5c0-42.5-3.12-121.25-76.88-121.25-35.65,0-74.32,18.75-111.85,51.48v367.26c0,90.62,3.75,149.38,72.5,149.38v5.62h-408.12v-5.62c92.5,0,103.75-28.75,103.75-149.38v-318.75c0-88.12-5.62-127.5-117.5-101.88l-1.25-5.62,353.12-83.75-4.21,135.33c124.66-101.45,200.38-137.81,276.71-137.81,101.25,0,145.62,58.75,145.62,186.25l-.03,326.25Z"/>
  </g>
</svg>