<?xml version="1.0" encoding="UTF-8"?>
<svg id="Layer_1" data-name="Layer 1" xmlns="http://www.w3.org/2000/svg" viewBox="0 0 48 48">
  <defs>
    <style>
      .cls-1 {
        stroke-width: 0px;
      }
    </style>
  </defs>
  <path class="cls-1" d="m36.5,42H11.5c-3.03,0-5.5-2.47-5.5-5.5v-3.8c0-.83.67-1.5,1.5-1.5s1.5.67,1.5,1.5v3.8c0,1.38,1.12,2.5,2.5,2.5h25c1.38,0,2.5-1.12,2.5-2.5v-17c0-.83.67-1.5,1.5-1.5s1.5.67,1.5,1.5v17c0,3.03-2.47,5.5-5.5,5.5Z"/>
  <path class="cls-1" d="m7.5,28.8c-.83,0-1.5-.67-1.5-1.5v-15.8c0-3.03,2.47-5.5,5.5-5.5h25c3.03,0,5.5,2.47,5.5,5.5v2.1c0,.83-.67,1.5-1.5,1.5s-1.5-.67-1.5-1.5v-2.1c0-1.38-1.12-2.5-2.5-2.5H11.5c-1.38,0-2.5,1.12-2.5,2.5v15.8c0,.83-.67,1.5-1.5,1.5Z"/>
  <path class="cls-1" d="m17.5,32c-.38,0-.77-.15-1.06-.44-.59-.59-.59-1.54,0-2.12l13-13c.59-.59,1.54-.59,2.12,0,.59.59.59,1.54,0,2.12l-13,13c-.29.29-.68.44-1.06.44Z"/>
  <path class="cls-1" d="m30.5,32c-.38,0-.77-.15-1.06-.44l-13-13c-.59-.59-.59-1.54,0-2.12.59-.59,1.54-.59,2.12,0l13,13c.59.59.59,1.54,0,2.12-.29.29-.68.44-1.06.44Z"/>
</svg>