<?xml version="1.0" encoding="UTF-8"?>
<svg id="Layer_1" data-name="Layer 1" xmlns="http://www.w3.org/2000/svg" viewBox="0 0 48 48">
  <defs>
    <style>
      .cls-1 {
        stroke-width: 0px;
      }
    </style>
  </defs>
  <path class="cls-1" d="m15.72,41.94c-.53,0-1.06-.11-1.57-.35-1.34-.62-2.17-1.92-2.17-3.39v-15.8c0-.83.67-1.5,1.5-1.5s1.5.67,1.5,1.5v15.8c0,.42.3.6.42.66.13.06.46.17.78-.11l5.33-4.56c.63-.54,1.58-.46,2.12.16.54.63.47,1.58-.16,2.12l-5.33,4.56c-.7.59-1.55.9-2.42.9Z"/>
  <path class="cls-1" d="m27.33,32.69c-.42,0-.84-.18-1.14-.52-.54-.63-.46-1.58.16-2.12l6.4-5.48c.23-.2.26-.44.26-.57s-.03-.37-.26-.57l-16.59-14.2c-.32-.27-.64-.17-.77-.11-.13.06-.42.24-.42.66v5.13c0,.83-.67,1.5-1.5,1.5s-1.5-.67-1.5-1.5v-5.13c0-1.47.83-2.77,2.17-3.38s2.86-.4,3.98.55l16.59,14.2c.83.71,1.31,1.75,1.31,2.85,0,1.1-.48,2.13-1.31,2.85l-6.4,5.48c-.28.24-.63.36-.97.36Z"/>
</svg>