<?xml version="1.0" encoding="UTF-8"?>
<svg id="Layer_1" data-name="Layer 1" xmlns="http://www.w3.org/2000/svg" viewBox="0 0 48 48">
  <defs>
    <style>
      .cls-1 {
        stroke-width: 0px;
      }
    </style>
  </defs>
  <path class="cls-1" d="M34.5,39c-4.77,0-8.5-3.73-8.5-8.5,0-.83.67-1.5,1.5-1.5s1.5.67,1.5,1.5c0,3.08,2.42,5.5,5.5,5.5s5.5-2.42,5.5-5.5-2.42-5.5-5.5-5.5c-.83,0-1.5-.67-1.5-1.5s.67-1.5,1.5-1.5c4.77,0,8.5,3.73,8.5,8.5s-3.73,8.5-8.5,8.5Z"/>
  <path class="cls-1" d="M27.5,31.5c-.83,0-1.5-.67-1.5-1.5,0-16.33,10.5-20.71,10.94-20.89.77-.31,1.64.07,1.95.84.31.77-.06,1.64-.83,1.95-.4.16-9.06,3.93-9.06,18.11,0,.83-.67,1.5-1.5,1.5Z"/>
  <path class="cls-1" d="M13.5,39c-4.77,0-8.5-3.73-8.5-8.5,0-.83.67-1.5,1.5-1.5s1.5.67,1.5,1.5c0,3.08,2.42,5.5,5.5,5.5s5.5-2.42,5.5-5.5-2.46-5.5-5.6-5.5c-.83,0-1.5-.67-1.5-1.5s.67-1.5,1.5-1.5h.04s.02,0,.03,0c4.79.04,8.53,3.76,8.53,8.5s-3.73,8.5-8.5,8.5Z"/>
  <path class="cls-1" d="M6.5,31.9c-.83,0-1.5-.67-1.5-1.5,0-16.29,10.45-21.08,10.9-21.27.76-.33,1.64.01,1.98.77.33.76,0,1.64-.76,1.97-.38.17-9.11,4.29-9.11,18.53,0,.83-.67,1.5-1.5,1.5Z"/>
</svg>