<?xml version="1.0" encoding="UTF-8"?>
<svg xmlns="http://www.w3.org/2000/svg" viewBox="0 0 48 48">
  <defs>
    <style>
      .cls-1 {
        stroke-width: 0px;
      }
    </style>
  </defs>
  <path class="cls-1" d="m24,44c-11.03,0-20-8.97-20-20,0-7.31,3.99-14.04,10.41-17.56.73-.4,1.64-.13,2.04.6.4.73.13,1.64-.6,2.04-5.46,2.99-8.85,8.71-8.85,14.93,0,9.37,7.63,17,17,17,.83,0,1.5.67,1.5,1.5s-.67,1.5-1.5,1.5Z"/>
  <path class="cls-1" d="m33,41.67c-.53,0-1.04-.28-1.31-.77-.4-.72-.14-1.64.58-2.04,5.38-3,8.73-8.7,8.73-14.86,0-9.37-7.63-17-17-17-.15,0-.3,0-.46,0-.8.03-1.52-.63-1.54-1.46s.63-1.52,1.46-1.54c.18,0,.36,0,.54,0,11.03,0,20,8.97,20,20,0,7.25-3.93,13.94-10.27,17.48-.23.13-.48.19-.73.19Z"/>
  <path class="cls-1" d="m23.5,30.09c-.67,0-1.3-.26-1.77-.73l-7.29-7.29c-.59-.59-.59-1.54,0-2.12.59-.59,1.54-.59,2.12,0l6.94,6.94,6.94-6.94c.59-.59,1.54-.59,2.12,0,.59.59.59,1.54,0,2.12l-7.29,7.29c-.47.47-1.1.73-1.77.73Z"/>
</svg>